# Blender v2.78 (sub 0) OBJ File: 'Bullettest.blend'
# www.blender.org
mtllib BoltTexture.mtl
o Cylinder_Cylinder.006
v 0.248386 0.000000 -0.750000
v 0.024839 -0.000001 0.750000
v 0.229478 -0.095053 -0.750000
v 0.022948 -0.009506 0.750000
v 0.175635 -0.175635 -0.750000
v 0.017564 -0.017564 0.750000
v 0.095053 -0.229478 -0.750000
v 0.009505 -0.022948 0.750000
v -0.000000 -0.248386 -0.750000
v 0.000000 -0.024839 0.750000
v -0.095053 -0.229478 -0.750000
v -0.009505 -0.022948 0.750000
v -0.175635 -0.175635 -0.750000
v -0.017564 -0.017564 0.750000
v -0.229478 -0.095053 -0.750000
v -0.022948 -0.009506 0.750000
v -0.248386 0.000000 -0.750000
v -0.024839 -0.000001 0.750000
v -0.229478 0.095053 -0.750000
v -0.022948 0.009505 0.750000
v -0.175635 0.175635 -0.750000
v -0.017564 0.017563 0.750000
v -0.095053 0.229478 -0.750000
v -0.009505 0.022947 0.750000
v -0.000000 0.248386 -0.750000
v 0.000000 0.024838 0.750000
v 0.095053 0.229478 -0.750000
v 0.009505 0.022947 0.750000
v 0.175635 0.175635 -0.750000
v 0.017564 0.017563 0.750000
v 0.229478 0.095053 -0.750000
v 0.022948 0.009505 0.750000
v 0.248386 -0.000000 0.225001
v 0.229478 -0.095054 0.225001
v 0.175635 -0.175636 0.225001
v 0.095053 -0.229479 0.225001
v 0.000000 -0.248386 0.225001
v -0.095053 -0.229479 0.225001
v -0.175635 -0.175636 0.225001
v -0.229478 -0.095054 0.225001
v -0.248386 -0.000001 0.225001
v -0.229478 0.095053 0.225001
v -0.175635 0.175635 0.225001
v -0.095053 0.229478 0.225001
v 0.000000 0.248385 0.225001
v 0.095053 0.229478 0.225001
v 0.175635 0.175635 0.225001
v 0.229478 0.095053 0.225001
v 0.229478 -0.095053 -0.555000
v 0.175635 -0.175635 -0.555000
v 0.095053 -0.229478 -0.555000
v -0.000000 -0.248386 -0.555000
v -0.095053 -0.229478 -0.555000
v -0.175635 -0.175635 -0.555000
v -0.229478 -0.095053 -0.555000
v -0.248386 0.000000 -0.555000
v -0.229478 0.095053 -0.555000
v -0.175635 0.175635 -0.555000
v -0.095053 0.229478 -0.555000
v -0.000000 0.248386 -0.555000
v 0.095053 0.229478 -0.555000
v 0.175635 0.175635 -0.555000
v 0.229478 0.095053 -0.555000
v 0.248386 0.000000 -0.555000
v 0.206531 -0.085548 -0.588808
v 0.158072 -0.158072 -0.588808
v 0.085548 -0.206531 -0.588808
v -0.000000 -0.223547 -0.588808
v -0.085548 -0.206531 -0.588808
v -0.158072 -0.158072 -0.588808
v -0.206531 -0.085548 -0.588808
v -0.223547 0.000000 -0.588808
v -0.206531 0.085548 -0.588808
v -0.158072 0.158072 -0.588808
v -0.085548 0.206530 -0.588808
v -0.000000 0.223547 -0.588808
v 0.085548 0.206530 -0.588808
v 0.158072 0.158072 -0.588808
v 0.206531 0.085548 -0.588808
v 0.223547 0.000000 -0.588808
v 0.206531 -0.085548 -0.670854
v 0.158072 -0.158072 -0.670854
v 0.085548 -0.206531 -0.670854
v -0.000000 -0.223547 -0.670854
v -0.085548 -0.206531 -0.670854
v -0.158072 -0.158072 -0.670854
v -0.206531 -0.085548 -0.670854
v -0.223547 0.000000 -0.670854
v -0.206531 0.085548 -0.670854
v -0.158072 0.158072 -0.670854
v -0.085548 0.206530 -0.670854
v -0.000000 0.223547 -0.670854
v 0.085548 0.206530 -0.670854
v 0.158072 0.158072 -0.670854
v 0.206531 0.085548 -0.670854
v 0.223547 0.000000 -0.670854
v 0.198708 -0.000001 0.408750
v 0.183583 -0.076043 0.408750
v 0.140508 -0.140509 0.408750
v 0.076043 -0.183583 0.408750
v 0.000000 -0.198709 0.408750
v -0.076043 -0.183583 0.408750
v -0.140508 -0.140509 0.408750
v -0.183583 -0.076043 0.408750
v -0.198708 -0.000001 0.408750
v -0.183583 0.076042 0.408750
v -0.140508 0.140508 0.408750
v -0.076043 0.183582 0.408750
v 0.000000 0.198708 0.408750
v 0.076043 0.183582 0.408750
v 0.140508 0.140508 0.408750
v 0.183583 0.076042 0.408750
v 0.230970 -0.095671 -0.682727
v 0.176777 -0.176777 -0.682727
v 0.095671 -0.230970 -0.682727
v -0.000000 -0.250000 -0.682727
v -0.095671 -0.230970 -0.682727
v -0.176777 -0.176777 -0.682727
v -0.230970 -0.095671 -0.682727
v -0.250000 0.000000 -0.682727
v -0.230970 0.095671 -0.682727
v -0.176777 0.176777 -0.682727
v -0.095671 0.230970 -0.682727
v -0.000000 0.250000 -0.682727
v 0.095671 0.230970 -0.682727
v 0.176777 0.176777 -0.682727
v 0.230970 0.095671 -0.682727
v 0.250000 0.000000 -0.682727
vt 0.3637 0.6822
vt 0.3631 0.8974
vt 0.3575 0.8979
vt 0.3214 0.6855
vt 0.3521 0.8992
vt 0.2803 0.6958
vt 0.3470 0.9015
vt 0.2413 0.7129
vt 0.3424 0.9047
vt 0.2055 0.7364
vt 0.3383 0.9086
vt 0.1738 0.7658
vt 0.3349 0.9132
vt 0.1469 0.8003
vt 0.3324 0.9183
vt 0.1256 0.8394
vt 0.3309 0.9238
vt 0.1100 0.8826
vt 0.6141 0.8819
vt 0.3950 0.9238
vt 0.3935 0.9184
vt 0.5986 0.8395
vt 0.3910 0.9133
vt 0.5776 0.8011
vt 0.3877 0.9088
vt 0.5513 0.7670
vt 0.3837 0.9049
vt 0.5203 0.7379
vt 0.3791 0.9017
vt 0.4851 0.7143
vt 0.3740 0.8994
vt 0.4466 0.6968
vt 0.7358 0.8823
vt 0.7303 0.8823
vt 0.7251 0.8801
vt 0.7211 0.8762
vt 0.7190 0.8710
vt 0.7190 0.8654
vt 0.7211 0.8603
vt 0.7251 0.8563
vt 0.7303 0.8542
vt 0.7358 0.8542
vt 0.7410 0.8563
vt 0.7450 0.8603
vt 0.7471 0.8654
vt 0.7471 0.8710
vt 0.7450 0.8762
vt 0.7410 0.8801
vt 0.3687 0.8979
vt 0.4058 0.6860
vt 0.8874 0.5730
vt 0.9390 0.5944
vt 0.9785 0.6339
vt 0.9998 0.6855
vt 0.9998 0.7414
vt 0.9785 0.7930
vt 0.9390 0.8325
vt 0.8874 0.8539
vt 0.8315 0.8539
vt 0.7799 0.8325
vt 0.7404 0.7930
vt 0.7190 0.7414
vt 0.7190 0.6855
vt 0.7404 0.6339
vt 0.7799 0.5944
vt 0.8315 0.5730
vt 0.5069 0.1339
vt 0.5047 0.5723
vt 0.4482 0.5719
vt 0.4511 0.1338
vt 0.5627 0.1341
vt 0.5612 0.5726
vt 0.6186 0.1343
vt 0.6177 0.5727
vt 0.6744 0.1347
vt 0.6742 0.5727
vt 0.7301 0.1354
vt 0.7307 0.5726
vt 0.7854 0.1363
vt 0.7872 0.5723
vt 0.8399 0.1371
vt 0.8436 0.5717
vt 0.8935 0.1365
vt 0.9000 0.5710
vt 0.0673 0.1341
vt 0.0543 0.5651
vt 0.0002 0.5635
vt 0.0130 0.1318
vt 0.1211 0.1341
vt 0.1104 0.5666
vt 0.1752 0.1339
vt 0.1665 0.5679
vt 0.2298 0.1337
vt 0.2227 0.5690
vt 0.2848 0.1337
vt 0.2790 0.5700
vt 0.3400 0.1337
vt 0.3354 0.5708
vt 0.3955 0.1338
vt 0.3918 0.5714
vt 0.4509 0.1085
vt 0.3953 0.1085
vt 0.3398 0.1086
vt 0.2845 0.1087
vt 0.2295 0.1088
vt 0.1749 0.1091
vt 0.1208 0.1095
vt 0.0676 0.1097
vt 0.0168 0.1081
vt 0.8907 0.1140
vt 0.8400 0.1133
vt 0.7857 0.1114
vt 0.7303 0.1101
vt 0.6745 0.1094
vt 0.6185 0.1089
vt 0.5626 0.1087
vt 0.5067 0.1086
vt 0.4490 0.0394
vt 0.4494 0.0568
vt 0.3937 0.0569
vt 0.3933 0.0396
vt 0.3381 0.0571
vt 0.3377 0.0398
vt 0.2827 0.0574
vt 0.2823 0.0401
vt 0.2276 0.0578
vt 0.2271 0.0406
vt 0.1727 0.0585
vt 0.1722 0.0414
vt 0.1185 0.0594
vt 0.1178 0.0426
vt 0.0657 0.0607
vt 0.0645 0.0449
vt 0.0164 0.0647
vt 0.0121 0.0503
vt 0.9000 0.0522
vt 0.8945 0.0695
vt 0.8415 0.0627
vt 0.8429 0.0450
vt 0.7860 0.0596
vt 0.7865 0.0420
vt 0.7299 0.0580
vt 0.7300 0.0403
vt 0.6736 0.0571
vt 0.6734 0.0395
vt 0.6173 0.0568
vt 0.6170 0.0392
vt 0.5612 0.0567
vt 0.5608 0.0391
vt 0.5052 0.0567
vt 0.5048 0.0392
vt 0.4258 0.5790
vt 0.3657 0.5730
vt 0.4840 0.5948
vt 0.5385 0.6199
vt 0.5879 0.6534
vt 0.6311 0.6941
vt 0.6673 0.7405
vt 0.6963 0.7909
vt 0.7187 0.8436
vt 0.0241 0.7872
vt 0.0002 0.8429
vt 0.0553 0.7352
vt 0.0939 0.6883
vt 0.1392 0.6479
vt 0.1904 0.6153
vt 0.2463 0.5915
vt 0.3052 0.5772
vt 0.5053 0.0005
vt 0.4494 0.0008
vt 0.5614 0.0003
vt 0.6177 0.0002
vt 0.6744 0.0003
vt 0.7315 0.0009
vt 0.7890 0.0026
vt 0.8468 0.0064
vt 0.9042 0.0128
vt 0.0626 0.0078
vt 0.0086 0.0124
vt 0.1170 0.0051
vt 0.1719 0.0035
vt 0.2271 0.0025
vt 0.2825 0.0018
vt 0.3381 0.0014
vt 0.3937 0.0010
vn 0.8773 -0.1745 0.4470
vn 0.7438 -0.4970 0.4470
vn 0.4970 -0.7438 0.4470
vn 0.1745 -0.8773 0.4470
vn -0.1745 -0.8773 0.4470
vn -0.4970 -0.7438 0.4470
vn -0.7438 -0.4970 0.4470
vn -0.8773 -0.1745 0.4470
vn -0.8773 0.1745 0.4470
vn -0.7438 0.4970 0.4470
vn -0.4970 0.7438 0.4470
vn -0.1745 0.8773 0.4470
vn 0.1745 0.8773 0.4470
vn 0.4970 0.7438 0.4470
vn -0.0000 0.0000 1.0000
vn 0.7438 0.4970 0.4470
vn 0.8773 0.1745 0.4470
vn 0.0000 0.0000 -1.0000
vn 0.9808 0.1951 0.0000
vn 0.8315 0.5556 0.0000
vn 0.5556 0.8315 0.0000
vn 0.1951 0.9808 0.0000
vn -0.1951 0.9808 0.0000
vn -0.5556 0.8315 0.0000
vn -0.8315 0.5556 0.0000
vn -0.9808 0.1951 0.0000
vn -0.9808 -0.1951 -0.0000
vn -0.8315 -0.5556 -0.0000
vn -0.5556 -0.8315 -0.0000
vn -0.1951 -0.9808 -0.0000
vn 0.1951 -0.9808 -0.0000
vn 0.5556 -0.8315 -0.0000
vn 0.8315 -0.5556 -0.0000
vn 0.9808 -0.1951 -0.0000
vn 0.7957 -0.1583 -0.5846
vn 0.6746 -0.4507 -0.5846
vn 0.4507 -0.6746 -0.5846
vn 0.1583 -0.7957 -0.5846
vn -0.1583 -0.7957 -0.5846
vn -0.4507 -0.6746 -0.5846
vn -0.6746 -0.4507 -0.5846
vn -0.7957 -0.1583 -0.5846
vn -0.7957 0.1583 -0.5846
vn -0.6746 0.4507 -0.5846
vn -0.4507 0.6746 -0.5846
vn -0.1583 0.7957 -0.5846
vn 0.1583 0.7957 -0.5846
vn 0.4507 0.6746 -0.5846
vn 0.6746 0.4507 -0.5846
vn 0.7957 0.1583 -0.5846
vn 0.4081 -0.0812 0.9093
vn 0.3460 -0.2312 0.9093
vn 0.2312 -0.3460 0.9093
vn 0.0812 -0.4081 0.9093
vn -0.0812 -0.4081 0.9093
vn -0.2312 -0.3460 0.9093
vn -0.3460 -0.2312 0.9093
vn -0.4081 -0.0812 0.9093
vn -0.4081 0.0812 0.9093
vn -0.3460 0.2312 0.9093
vn -0.2312 0.3460 0.9093
vn -0.0812 0.4081 0.9093
vn 0.0812 0.4081 0.9093
vn 0.2312 0.3460 0.9093
vn 0.3460 0.2312 0.9093
vn 0.4081 0.0812 0.9093
vn 0.9480 0.1886 0.2563
vn 0.8037 0.5370 0.2563
vn 0.5370 0.8037 0.2563
vn 0.1886 0.9480 0.2563
vn -0.1886 0.9480 0.2563
vn -0.5370 0.8037 0.2563
vn -0.8037 0.5370 0.2563
vn -0.9480 0.1886 0.2563
vn -0.9480 -0.1886 0.2563
vn -0.8037 -0.5370 0.2563
vn -0.5370 -0.8037 0.2563
vn -0.1886 -0.9480 0.2563
vn 0.1886 -0.9480 0.2563
vn 0.5370 -0.8037 0.2563
vn 0.8037 -0.5370 0.2563
vn 0.9480 -0.1886 0.2563
vn 0.9805 0.1950 -0.0235
vn 0.8312 0.5554 -0.0235
vn 0.5554 0.8312 -0.0235
vn 0.1950 0.9805 -0.0235
vn -0.1950 0.9805 -0.0235
vn -0.5554 0.8312 -0.0235
vn -0.8312 0.5554 -0.0235
vn -0.9805 0.1950 -0.0235
vn -0.9805 -0.1950 -0.0235
vn -0.8312 -0.5554 -0.0235
vn -0.5554 -0.8312 -0.0235
vn -0.1950 -0.9805 -0.0235
vn 0.1950 -0.9805 -0.0235
vn 0.5554 -0.8312 -0.0235
vn 0.8312 -0.5554 -0.0235
vn 0.9805 -0.1950 -0.0235
vn 0.7548 0.3127 0.5766
vn 0.8741 0.3621 -0.3236
vn 0.9462 0.0000 -0.3236
vn 0.8170 0.0000 0.5766
vn 0.5777 0.5777 0.5766
vn 0.6690 0.6690 -0.3236
vn 0.3127 0.7548 0.5766
vn 0.3621 0.8741 -0.3236
vn 0.0000 0.8170 0.5766
vn 0.0000 0.9462 -0.3236
vn -0.3127 0.7548 0.5766
vn -0.3621 0.8741 -0.3236
vn -0.5777 0.5777 0.5766
vn -0.6690 0.6690 -0.3236
vn -0.7548 0.3127 0.5766
vn -0.8741 0.3621 -0.3236
vn -0.8170 0.0000 0.5766
vn -0.9462 0.0000 -0.3236
vn -0.7548 -0.3127 0.5766
vn -0.8741 -0.3621 -0.3236
vn -0.5777 -0.5777 0.5766
vn -0.6690 -0.6690 -0.3236
vn -0.3127 -0.7548 0.5766
vn -0.3621 -0.8741 -0.3236
vn 0.0000 -0.8170 0.5766
vn 0.0000 -0.9462 -0.3236
vn 0.3127 -0.7548 0.5766
vn 0.3621 -0.8741 -0.3236
vn 0.5777 -0.5777 0.5766
vn 0.6690 -0.6690 -0.3236
vn 0.7548 -0.3127 0.5766
vn 0.8741 -0.3621 -0.3236
g Cylinder_Cylinder.006_Material.006
usemtl Material.006
s off
f 97/1/1 2/2/1 4/3/1 98/4/1
f 98/4/2 4/3/2 6/5/2 99/6/2
f 99/6/3 6/5/3 8/7/3 100/8/3
f 100/8/4 8/7/4 10/9/4 101/10/4
f 101/10/5 10/9/5 12/11/5 102/12/5
f 102/12/6 12/11/6 14/13/6 103/14/6
f 103/14/7 14/13/7 16/15/7 104/16/7
f 104/16/8 16/15/8 18/17/8 105/18/8
f 105/19/9 18/20/9 20/21/9 106/22/9
f 106/22/10 20/21/10 22/23/10 107/24/10
f 107/24/11 22/23/11 24/25/11 108/26/11
f 108/26/12 24/25/12 26/27/12 109/28/12
f 109/28/13 26/27/13 28/29/13 110/30/13
f 110/30/14 28/29/14 30/31/14 111/32/14
f 4/33/15 2/34/15 32/35/15 30/36/15 28/37/15 26/38/15 24/39/15 22/40/15 20/41/15 18/42/15 16/43/15 14/44/15 12/45/15 10/46/15 8/47/15 6/48/15
f 111/32/16 30/31/16 32/49/16 112/50/16
f 112/50/17 32/49/17 2/2/17 97/1/17
f 1/51/18 3/52/18 5/53/18 7/54/18 9/55/18 11/56/18 13/57/18 15/58/18 17/59/18 19/60/18 21/61/18 23/62/18 25/63/18 27/64/18 29/65/18 31/66/18
f 63/67/19 48/68/19 33/69/19 64/70/19
f 62/71/20 47/72/20 48/68/20 63/67/20
f 61/73/21 46/74/21 47/72/21 62/71/21
f 60/75/22 45/76/22 46/74/22 61/73/22
f 59/77/23 44/78/23 45/76/23 60/75/23
f 58/79/24 43/80/24 44/78/24 59/77/24
f 57/81/25 42/82/25 43/80/25 58/79/25
f 56/83/26 41/84/26 42/82/26 57/81/26
f 55/85/27 40/86/27 41/87/27 56/88/27
f 54/89/28 39/90/28 40/86/28 55/85/28
f 53/91/29 38/92/29 39/90/29 54/89/29
f 52/93/30 37/94/30 38/92/30 53/91/30
f 51/95/31 36/96/31 37/94/31 52/93/31
f 50/97/32 35/98/32 36/96/32 51/95/32
f 49/99/33 34/100/33 35/98/33 50/97/33
f 64/70/34 33/69/34 34/100/34 49/99/34
f 80/101/35 64/70/35 49/99/35 65/102/35
f 65/102/36 49/99/36 50/97/36 66/103/36
f 66/103/37 50/97/37 51/95/37 67/104/37
f 67/104/38 51/95/38 52/93/38 68/105/38
f 68/105/39 52/93/39 53/91/39 69/106/39
f 69/106/40 53/91/40 54/89/40 70/107/40
f 70/107/41 54/89/41 55/85/41 71/108/41
f 71/108/42 55/85/42 56/88/42 72/109/42
f 72/110/43 56/83/43 57/81/43 73/111/43
f 73/111/44 57/81/44 58/79/44 74/112/44
f 74/112/45 58/79/45 59/77/45 75/113/45
f 75/113/46 59/77/46 60/75/46 76/114/46
f 76/114/47 60/75/47 61/73/47 77/115/47
f 77/115/48 61/73/48 62/71/48 78/116/48
f 78/116/49 62/71/49 63/67/49 79/117/49
f 79/117/50 63/67/50 64/70/50 80/101/50
f 128/118/51 96/119/51 81/120/51 113/121/51
f 113/121/52 81/120/52 82/122/52 114/123/52
f 114/123/53 82/122/53 83/124/53 115/125/53
f 115/125/54 83/124/54 84/126/54 116/127/54
f 116/127/55 84/126/55 85/128/55 117/129/55
f 117/129/56 85/128/56 86/130/56 118/131/56
f 118/131/57 86/130/57 87/132/57 119/133/57
f 119/133/58 87/132/58 88/134/58 120/135/58
f 120/136/59 88/137/59 89/138/59 121/139/59
f 121/139/60 89/138/60 90/140/60 122/141/60
f 122/141/61 90/140/61 91/142/61 123/143/61
f 123/143/62 91/142/62 92/144/62 124/145/62
f 124/145/63 92/144/63 93/146/63 125/147/63
f 125/147/64 93/146/64 94/148/64 126/149/64
f 126/149/65 94/148/65 95/150/65 127/151/65
f 127/151/66 95/150/66 96/119/66 128/118/66
f 48/152/67 112/50/67 97/1/67 33/153/67
f 47/154/68 111/32/68 112/50/68 48/152/68
f 46/155/69 110/30/69 111/32/69 47/154/69
f 45/156/70 109/28/70 110/30/70 46/155/70
f 44/157/71 108/26/71 109/28/71 45/156/71
f 43/158/72 107/24/72 108/26/72 44/157/72
f 42/159/73 106/22/73 107/24/73 43/158/73
f 41/160/74 105/19/74 106/22/74 42/159/74
f 40/161/75 104/16/75 105/18/75 41/162/75
f 39/163/76 103/14/76 104/16/76 40/161/76
f 38/164/77 102/12/77 103/14/77 39/163/77
f 37/165/78 101/10/78 102/12/78 38/164/78
f 36/166/79 100/8/79 101/10/79 37/165/79
f 35/167/80 99/6/80 100/8/80 36/166/80
f 34/168/81 98/4/81 99/6/81 35/167/81
f 33/153/82 97/1/82 98/4/82 34/168/82
f 31/169/83 127/151/83 128/118/83 1/170/83
f 29/171/84 126/149/84 127/151/84 31/169/84
f 27/172/85 125/147/85 126/149/85 29/171/85
f 25/173/86 124/145/86 125/147/86 27/172/86
f 23/174/87 123/143/87 124/145/87 25/173/87
f 21/175/88 122/141/88 123/143/88 23/174/88
f 19/176/89 121/139/89 122/141/89 21/175/89
f 17/177/90 120/136/90 121/139/90 19/176/90
f 15/178/91 119/133/91 120/135/91 17/179/91
f 13/180/92 118/131/92 119/133/92 15/178/92
f 11/181/93 117/129/93 118/131/93 13/180/93
f 9/182/94 116/127/94 117/129/94 11/181/94
f 7/183/95 115/125/95 116/127/95 9/182/95
f 5/184/96 114/123/96 115/125/96 7/183/96
f 3/185/97 113/121/97 114/123/97 5/184/97
f 1/170/98 128/118/98 113/121/98 3/185/98
s 1
f 95/150/99 79/117/100 80/101/101 96/119/102
f 94/148/103 78/116/104 79/117/100 95/150/99
f 93/146/105 77/115/106 78/116/104 94/148/103
f 92/144/107 76/114/108 77/115/106 93/146/105
f 91/142/109 75/113/110 76/114/108 92/144/107
f 90/140/111 74/112/112 75/113/110 91/142/109
f 89/138/113 73/111/114 74/112/112 90/140/111
f 88/137/115 72/110/116 73/111/114 89/138/113
f 87/132/117 71/108/118 72/109/116 88/134/115
f 86/130/119 70/107/120 71/108/118 87/132/117
f 85/128/121 69/106/122 70/107/120 86/130/119
f 84/126/123 68/105/124 69/106/122 85/128/121
f 83/124/125 67/104/126 68/105/124 84/126/123
f 82/122/127 66/103/128 67/104/126 83/124/125
f 81/120/129 65/102/130 66/103/128 82/122/127
f 96/119/102 80/101/101 65/102/130 81/120/129
